<?xml version="1.0" encoding="utf-8"?>
<!-- Generator: Adobe Illustrator 15.1.0, SVG Export Plug-In . SVG Version: 6.00 Build 0)  -->
<!DOCTYPE svg PUBLIC "-//W3C//DTD SVG 1.1//EN" "http://www.w3.org/Graphics/SVG/1.1/DTD/svg11.dtd">
<svg version="1.1" id="Layer_1" xmlns="http://www.w3.org/2000/svg" xmlns:xlink="http://www.w3.org/1999/xlink" x="0px" y="0px"
	 width="24px" height="24px" viewBox="344.5 330.5 24 24" enable-background="new 344.5 330.5 24 24" xml:space="preserve">
<path fill="#FFFFFF" d="M353.5,345.5h2v-2h-2V345.5z M353.5,341.5h2v-2h-2V341.5z M353.5,349.5h2v-2h-2V349.5z M357.5,349.5h2v-2h-2
	V349.5z M349.5,341.5h2v-2h-2V341.5z M349.5,349.5h2v-2h-2V349.5z M349.5,345.5h2v-2h-2V345.5z M357.5,345.5h2v-2h-2V345.5z
	 M361.5,345.5h2v-2h-2V345.5z M366.5,332.5h-3v-1c0-0.552-0.447-1-1-1c-0.554,0-1,0.448-1,1v1h-4v-1c0-0.552-0.447-1-1-1
	c-0.554,0-1,0.448-1,1v1h-4v-1c0-0.552-0.448-1-1-1c-0.554,0-1,0.448-1,1v1h-3c-1.104,0-2,0.896-2,2v18c0,1.104,0.896,2,2,2h20
	c1.104,0,2-0.896,2-2v-18C368.5,333.396,367.604,332.5,366.5,332.5z M366.5,351.5c0,0.553-0.448,1-1,1h-18c-0.554,0-1-0.447-1-1v-16
	c0-0.553,0.446-1,1-1h2v1c0,0.553,0.446,1,1,1c0.552,0,1-0.447,1-1v-1h4v1c0,0.553,0.446,1,1,1c0.553,0,1-0.447,1-1v-1h4v1
	c0,0.553,0.446,1,1,1c0.553,0,1-0.447,1-1v-1h2c0.552,0,1,0.447,1,1V351.5z M361.5,341.5h2v-2h-2V341.5z M357.5,341.5h2v-2h-2V341.5
	z M361.5,349.5h2v-2h-2V349.5z"/>
</svg>
