<?xml version="1.0" encoding="utf-8"?>
<!-- Generator: Adobe Illustrator 15.1.0, SVG Export Plug-In . SVG Version: 6.00 Build 0)  -->
<!DOCTYPE svg PUBLIC "-//W3C//DTD SVG 1.1//EN" "http://www.w3.org/Graphics/SVG/1.1/DTD/svg11.dtd">
<svg version="1.1" id="Layer_1" xmlns="http://www.w3.org/2000/svg" xmlns:xlink="http://www.w3.org/1999/xlink" x="0px" y="0px"
	 width="28px" height="22px" viewBox="264 332.5 28 22" enable-background="new 264 332.5 28 22" xml:space="preserve">
<path fill="#FFFFFF" d="M290,332.5h-24c-1.104,0-2,0.896-2,2v18c0,1.104,0.896,2,2,2h24c1.104,0,2-0.896,2-2v-18
	C292,333.396,291.104,332.5,290,332.5z M290,351.5c0,0.553-0.447,1-1,1h-22c-0.554,0-1-0.447-1-1v-15l12,10l12-10V351.5z
	 M267.2,334.5h21.6l-10.8,9L267.2,334.5z"/>
</svg>
