<?xml version="1.0" encoding="utf-8"?>
<!-- Generator: Adobe Illustrator 15.1.0, SVG Export Plug-In . SVG Version: 6.00 Build 0)  -->
<!DOCTYPE svg PUBLIC "-//W3C//DTD SVG 1.1//EN" "http://www.w3.org/Graphics/SVG/1.1/DTD/svg11.dtd">
<svg version="1.1" id="Layer_1" xmlns="http://www.w3.org/2000/svg" xmlns:xlink="http://www.w3.org/1999/xlink" x="0px" y="0px"
	 width="25px" height="25px" viewBox="306 331 25 25" enable-background="new 306 331 25 25" xml:space="preserve">
<path fill="#FFFFFF" d="M329,331h-21c-1.104,0-2,0.896-2,2v21c0,1.104,0.896,2,2,2h21c1.104,0,2-0.896,2-2v-21
	C331,331.896,330.104,331,329,331z M329,353c0,0.553-0.447,1-1,1h-5v-8h3l1-4h-4v-2l1-1h3v-4c0,0-3.453,0.025-5,0
	c-1.924-0.031-2.904,2.715-2.904,4.143c0,1.429-0.096,2.857-0.096,2.857h-4v4h4v8h-10c-0.554,0-1-0.447-1-1v-19c0-0.552,0.446-1,1-1
	h19c0.553,0,1,0.448,1,1V353z"/>
</svg>
