<?xml version="1.0" encoding="utf-8"?>
<!-- Generator: Adobe Illustrator 20.1.0, SVG Export Plug-In . SVG Version: 6.00 Build 0)  -->
<svg version="1.1" id="Layer_1" xmlns="http://www.w3.org/2000/svg" xmlns:xlink="http://www.w3.org/1999/xlink" x="0px" y="0px"
	 viewBox="0 0 22 22" style="enable-background:new 0 0 22 22;" xml:space="preserve">
<style type="text/css">
	.st0{fill:none;stroke:#FFFFFF;stroke-width:0.7194;stroke-linecap:round;stroke-linejoin:round;stroke-miterlimit:10;}
</style>
<title>handshake</title>
<g>
	<path class="st0" d="M16.7,13.6l1.4,1.4c0.6,0.6,0.6,1.4,0,2l0,0c-0.6,0.6-1.4,0.6-2,0l-1.4-1.4"/>
	<path class="st0" d="M12.7,17.5l0.6,0.6c0.5,0.5,0.5,1.4,0,2l0,0c-0.3,0.3-0.6,0.4-1,0.4"/>
	<polyline class="st0" points="2,10.3 2,8.1 0.5,6.7 5.5,1.6 6.6,2.7 8.4,2.7 	"/>
	<path class="st0" d="M3.6,14.7L4,14.3c0.6-0.6,1.4-0.6,2,0l0,0c0.6,0.6,0.6,1.4,0,2l-0.4,0.4c-0.6,0.6-1.4,0.6-2,0h0
		C3.1,16.2,3.1,15.3,3.6,14.7z"/>
	<path class="st0" d="M8,18.3l0.2-0.2c0.5-0.5,1.4-0.5,2,0h0c0.5,0.5,0.5,1.4,0,2L10,20.3c-0.5,0.5-1.4,0.5-2,0h0
		C7.5,19.7,7.5,18.8,8,18.3z"/>
	<path class="st0" d="M4,14.3l-0.2,0.2c-0.5,0.5-1.4,0.5-1.9,0c0,0,0,0,0-0.1l0,0c-0.5-0.5-0.5-1.4,0-1.9L2,12.4
		c0.5-0.5,1.4-0.6,1.9,0l0,0C4.5,12.9,4.5,13.8,4,14.3C4,14.3,4,14.3,4,14.3z"/>
	<path class="st0" d="M5.9,16.4L6,16.3c0.5-0.5,1.4-0.5,2,0h0c0.5,0.5,0.5,1.4,0,2l-0.1,0.1c-0.5,0.5-1.4,0.5-2,0l0,0
		C5.3,17.9,5.3,17,5.9,16.4z"/>
	<path class="st0" d="M15.8,16.6c0.5,0.5,0.5,1.4,0,2c0,0,0,0,0,0l0,0c-0.5,0.5-1.4,0.5-2,0l-0.5-0.5"/>
	<path class="st0" d="M17.7,14.5c0.5,0.5,1.4,0.5,1.9,0c0,0,0,0,0,0l0,0c0.5-0.5,0.5-1.4,0-1.9l-4.6-4.7"/>
	<path class="st0" d="M19.9,10.3V8.1l1.4-1.4l-5-5l-1.1,1.1h-2.4c-1.2,0-2.3,0.5-3.1,1.3L6.5,7.4C6,7.9,6.1,8.7,6.5,9.1
		C7,9.6,7.6,9.6,8.1,9.3L11.6,7c1.2,1.3,3.2,1.5,4.5,0.3c0.1-0.1,0.2-0.2,0.3-0.3"/>
</g>
</svg>
