<?xml version="1.0" encoding="utf-8"?>
<!-- Generator: Adobe Illustrator 15.1.0, SVG Export Plug-In . SVG Version: 6.00 Build 0)  -->
<!DOCTYPE svg PUBLIC "-//W3C//DTD SVG 1.1//EN" "http://www.w3.org/Graphics/SVG/1.1/DTD/svg11.dtd">
<svg version="1.1" id="Layer_4" xmlns="http://www.w3.org/2000/svg" xmlns:xlink="http://www.w3.org/1999/xlink" x="0px" y="0px"
	 width="215px" height="86.852px" viewBox="0 -9.954 215 86.852" enable-background="new 0 -9.954 215 86.852" xml:space="preserve"
	>
<g>
	<g>
		<polygon fill="#58595B" points="0,33.472 49.013,76.898 30.262,33.689 		"/>
		<polygon fill="#58595B" points="0,33.472 49.013,-9.954 30.262,33.257 		"/>
		<polygon points="38.827,14.46 49.848,33.472 38.827,52.486 0,33.472 		"/>
		<polygon fill="#58595B" points="49.864,33.472 40.802,33.472 54.401,14.883 		"/>
		
			<linearGradient id="SVGID_1_" gradientUnits="userSpaceOnUse" x1="641.2461" y1="1546.5432" x2="641.2461" y2="1565.2531" gradientTransform="matrix(1 0 0 1 -593 -1531.8262)">
			<stop  offset="0" style="stop-color:#F1F2F2"/>
			<stop  offset="0.3266" style="stop-color:#EEEEEF"/>
			<stop  offset="0.6449" style="stop-color:#E4E5E6"/>
			<stop  offset="0.959" style="stop-color:#D4D5D7"/>
			<stop  offset="1" style="stop-color:#D1D3D4"/>
		</linearGradient>
		<polygon fill="url(#SVGID_1_)" points="49.864,33.472 42.09,33.472 54.401,14.883 		"/>
		<polygon fill="#58595B" points="49.864,33.472 40.802,33.472 54.401,52.063 		"/>
		
			<linearGradient id="SVGID_2_" gradientUnits="userSpaceOnUse" x1="641.2461" y1="-2033.9446" x2="641.2461" y2="-2015.2295" gradientTransform="matrix(1 0 0 -1 -593 -1981.7173)">
			<stop  offset="0" style="stop-color:#F1F2F2"/>
			<stop  offset="0.3591" style="stop-color:#EEEFF0"/>
			<stop  offset="0.6437" style="stop-color:#E6E7E8"/>
			<stop  offset="0.9018" style="stop-color:#D8DADB"/>
			<stop  offset="1" style="stop-color:#D1D3D4"/>
		</linearGradient>
		<polygon fill="url(#SVGID_2_)" points="49.864,33.472 42.09,33.472 54.401,52.063 		"/>
		<polygon fill="#BCBEC0" points="54.401,14.883 49.219,33.472 54.401,52.063 49.864,33.472 		"/>
		<polygon fill="#A7A9AC" points="46.136,27.365 42.09,33.472 46.136,39.581 49.864,33.472 		"/>
		
			<linearGradient id="SVGID_3_" gradientUnits="userSpaceOnUse" x1="642.7832" y1="1565.2981" x2="607.2258" y2="1565.2981" gradientTransform="matrix(1 0 0 1 -593 -1531.8262)">
			<stop  offset="0" style="stop-color:#F1F2F2"/>
			<stop  offset="0.3238" style="stop-color:#EBEBEC"/>
			<stop  offset="0.8139" style="stop-color:#D9DBDC"/>
			<stop  offset="1" style="stop-color:#D1D3D4"/>
		</linearGradient>
		<polygon fill="url(#SVGID_3_)" points="38.221,15.993 49.848,33.472 38.221,50.951 0,33.472 		"/>
		<polygon fill="#FFFFFF" points="38.221,15.993 38.005,16.09 49.219,33.472 38.005,50.854 38.221,50.951 49.848,33.472 		"/>
		<g>
			<polygon opacity="0.7" fill="#58595B" enable-background="new    " points="45.869,33.642 45.869,33.303 42.292,27.923 
				17.116,27.413 3.866,33.472 7.492,35.13 44.84,35.192 			"/>
			<polygon opacity="0.7" fill="#58595B" enable-background="new    " points="30.757,45.771 37.822,45.74 42.589,38.573 
				13.949,38.082 			"/>
			
				<linearGradient id="SVGID_4_" gradientUnits="userSpaceOnUse" x1="638.835" y1="1575.177" x2="614.5063" y2="1575.177" gradientTransform="matrix(1 0 0 1 -593 -1531.8262)">
				<stop  offset="0" style="stop-color:#ED1F24"/>
				<stop  offset="0.3238" style="stop-color:#E01F26"/>
				<stop  offset="0.8139" style="stop-color:#C91E2B"/>
				<stop  offset="1" style="stop-color:#BE1E2D"/>
			</linearGradient>
			<polygon fill="url(#SVGID_4_)" points="36.057,48.193 36.218,48.153 42.632,38.509 24.847,43.07 			"/>
			
				<linearGradient id="SVGID_5_" gradientUnits="userSpaceOnUse" x1="638.8359" y1="1566.4143" x2="614.5073" y2="1566.4143" gradientTransform="matrix(1 0 0 1 -593 -1531.8262)">
				<stop  offset="0" style="stop-color:#ED1F24"/>
				<stop  offset="0.3238" style="stop-color:#E01F26"/>
				<stop  offset="0.8139" style="stop-color:#C91E2B"/>
				<stop  offset="1" style="stop-color:#BE1E2D"/>
			</linearGradient>
			<polygon fill="url(#SVGID_5_)" points="9.799,36.185 21.007,41.311 44.83,35.206 45.982,33.472 42.254,27.865 			"/>
			
				<linearGradient id="SVGID_6_" gradientUnits="userSpaceOnUse" x1="638.8379" y1="1558.4172" x2="614.5084" y2="1558.4172" gradientTransform="matrix(1 0 0 1 -593 -1531.8262)">
				<stop  offset="0" style="stop-color:#ED1F24"/>
				<stop  offset="0.3238" style="stop-color:#E01F26"/>
				<stop  offset="0.8139" style="stop-color:#C91E2B"/>
				<stop  offset="1" style="stop-color:#BE1E2D"/>
			</linearGradient>
			<polygon fill="url(#SVGID_6_)" points="36.176,18.727 36.02,18.769 3.866,33.472 6.021,34.455 40.721,25.562 			"/>
			<polygon fill="#BE1E2D" points="41.983,39.484 42.632,38.509 24.847,43.07 25.981,43.586 			"/>
			<polygon fill="#BE1E2D" points="42.715,28.558 42.254,27.865 9.799,36.185 10.933,36.704 			"/>
			<polygon fill="#BE1E2D" points="36.639,19.424 36.176,18.727 36.02,18.769 3.866,33.472 4.894,33.942 			"/>
			<polygon fill="#BE1E2D" points="41.856,38.708 35.664,48.014 36.057,48.193 36.218,48.153 42.632,38.509 			"/>
			<polygon fill="#BE1E2D" points="42.254,27.865 41.705,28.008 45.337,33.472 44.105,35.393 44.83,35.206 45.982,33.472 			"/>
			<polygon fill="#BE1E2D" points="40.114,25.718 40.721,25.562 36.176,18.727 36.02,18.769 35.664,18.931 			"/>
		</g>
		<polygon fill="#58595B" points="0,33.472 49.013,76.898 29.081,33.528 		"/>
		
			<linearGradient id="SVGID_7_" gradientUnits="userSpaceOnUse" x1="617.5059" y1="1608.5276" x2="617.5059" y2="1565.9126" gradientTransform="matrix(1 0 0 1 -593 -1531.8262)">
			<stop  offset="0" style="stop-color:#F1F2F2"/>
			<stop  offset="0.3125" style="stop-color:#ECECED"/>
			<stop  offset="0.7484" style="stop-color:#DDDEDF"/>
			<stop  offset="1" style="stop-color:#D1D3D4"/>
		</linearGradient>
		<polygon fill="url(#SVGID_7_)" points="0,33.472 49.013,76.898 28.143,34.653 		"/>
		
			<linearGradient id="SVGID_8_" gradientUnits="userSpaceOnUse" x1="593.082" y1="1587.01" x2="636.3391" y2="1587.01" gradientTransform="matrix(1 0 0 1 -593 -1531.8262)">
			<stop  offset="0" style="stop-color:#F1F2F2"/>
			<stop  offset="0.1638" style="stop-color:#EEEEEF"/>
			<stop  offset="0.3337" style="stop-color:#E3E4E5"/>
			<stop  offset="0.5062" style="stop-color:#D2D3D5"/>
			<stop  offset="0.6808" style="stop-color:#BABCBE"/>
			<stop  offset="0.8549" style="stop-color:#9C9EA1"/>
			<stop  offset="1" style="stop-color:#808285"/>
		</linearGradient>
		<polygon opacity="0.5" fill="url(#SVGID_8_)" enable-background="new    " points="0,33.472 49.013,76.898 47.729,74.287 		"/>
		<polygon opacity="0.4" fill="#FFFFFF" enable-background="new    " points="28.143,34.653 0,33.472 35.604,49.754 		"/>
		<polygon fill="#FFFFFF" points="28.143,34.653 0,33.472 28.69,35.763 		"/>
		<polygon fill="#58595B" points="0,33.472 49.013,-9.954 29.081,33.417 		"/>
		
			<linearGradient id="SVGID_9_" gradientUnits="userSpaceOnUse" x1="617.5068" y1="1522.178" x2="617.5068" y2="1565.1914" gradientTransform="matrix(1 0 0 1 -593 -1531.8262)">
			<stop  offset="0" style="stop-color:#F1F2F2"/>
			<stop  offset="0.3125" style="stop-color:#ECECED"/>
			<stop  offset="0.7484" style="stop-color:#DDDEDF"/>
			<stop  offset="1" style="stop-color:#D1D3D4"/>
		</linearGradient>
		<polygon fill="url(#SVGID_9_)" points="0,33.472 49.013,-9.954 28.143,32.291 		"/>
		<polygon opacity="0.4" fill="#FFFFFF" enable-background="new    " points="28.143,32.291 0,33.472 35.604,17.19 		"/>
		<polygon fill="#FFFFFF" points="28.143,32.291 0,33.472 28.69,31.182 		"/>
		
			<linearGradient id="SVGID_10_" gradientUnits="userSpaceOnUse" x1="593.082" y1="-1945.4216" x2="636.3391" y2="-1945.4216" gradientTransform="matrix(1 0 0 -1 -593 -1933.6626)">
			<stop  offset="0" style="stop-color:#F1F2F2"/>
			<stop  offset="0.1638" style="stop-color:#EEEEEF"/>
			<stop  offset="0.3337" style="stop-color:#E3E4E5"/>
			<stop  offset="0.5062" style="stop-color:#D2D3D5"/>
			<stop  offset="0.6808" style="stop-color:#BABCBE"/>
			<stop  offset="0.8549" style="stop-color:#9C9EA1"/>
			<stop  offset="1" style="stop-color:#808285"/>
		</linearGradient>
		<polygon opacity="0.5" fill="url(#SVGID_10_)" enable-background="new    " points="0,33.472 49.013,-9.954 47.729,-7.344 		"/>
	</g>
	<g>
		<path fill="#FFFFFF" d="M67.648,24.924c0-6.167,3.572-7.571,8.334-7.571c2.252,0,8.461,0.686,10.247,0.938v1.873
			c-2.721-0.17-10.247-0.387-10.247-0.387c-3.487-0.127-5.911,0.6-5.911,5.147v2.805c0,4.038,1.957,4.508,4.976,4.508h5.655
			c5.654,0,6.717,3.485,6.717,6.974v2.89c0,6.035-4.295,6.976-8.502,6.976c-2.083,0-8.461-0.6-10.417-0.938v-1.869
			c1.785,0.17,6.461,0.384,10.417,0.384c2.464,0,6.08-0.384,6.08-4.55v-2.893c0-2.849-1.063-4.507-4.294-4.507h-5.571
			c-6.717,0-7.483-3.487-7.483-6.975L67.648,24.924L67.648,24.924z"/>
		<path fill="#FFFFFF" d="M101.577,17.267c2.211,0,6.974,0.511,9.948,1.064v1.827c-0.041,0-6.04-0.47-9.948-0.47
			c-5.613,0-7.951,2.596-7.951,13.479c0,7.912,2.042,13.396,7.951,13.396c4.465,0,9.948-0.384,9.948-0.384v1.871
			c-2.979,0.551-7.738,0.937-9.948,0.937c-7.865,0-10.375-6.761-10.375-15.9C91.202,23.179,93.075,17.267,101.577,17.267z"/>
		<path fill="#FFFFFF" d="M126.549,17.608h2.596l10.969,31.124h-2.85l-3.062-9.395h-13.011l-3.231,9.395h-2.935L126.549,17.608z
			 M133.354,36.911l-5.526-15.773l-5.739,15.773H133.354z"/>
		<path fill="#FFFFFF" d="M143.598,17.608h2.426v25.768c0,2.807,1.744,2.936,3.357,2.936h12.543v2.423h-12.543
			c-2.806,0-5.783-0.553-5.783-5.355V17.608L143.598,17.608z"/>
		<path fill="#FFFFFF" d="M176.945,17.608h2.595l10.972,31.124h-2.851l-3.062-9.395h-13.012l-3.23,9.395h-2.935L176.945,17.608z
			 M183.747,36.911l-5.526-15.773l-5.738,15.773H183.747z"/>
		<path fill="#FFFFFF" d="M194.166,17.608h12.756c3.784,0,7.27,1.827,7.27,9.058c0,8.079-4.039,8.802-5.865,8.93L215,48.732h-2.637
			l-6.633-13.054c-0.768-0.042-9.059-0.512-9.146-0.553V48.73h-2.422L194.166,17.608L194.166,17.608z M206.922,33.086
			c2.422,0,4.805-0.34,4.805-6.421c0-5.909-2.466-6.591-4.805-6.591h-10.334v13.012H206.922z"/>
	</g>
	<g>
		<path fill="#FFFFFF" d="M67.872,64.474c0-1.398,0.831-1.72,1.913-1.72c0.512,0,2.047,0.184,2.414,0.229v0.577
			c-0.619-0.036-2.414-0.096-2.414-0.096c-0.676-0.028-1.198,0.039-1.198,1.006v0.635c0,0.886,0.404,0.947,0.985,0.947h1.371
			c1.286,0,1.506,0.87,1.506,1.662v0.656c0,1.372-0.993,1.584-1.951,1.584c-0.472,0-1.969-0.165-2.414-0.242v-0.58
			c0.386,0.039,1.517,0.106,2.414,0.106c0.396,0,1.238-0.021,1.238-0.868v-0.656c0-0.552-0.163-0.947-0.792-0.947h-1.353
			c-1.544,0-1.718-0.852-1.718-1.662L67.872,64.474L67.872,64.474z"/>
		<path fill="#FFFFFF" d="M74.913,64.704c0.502,0,1.525,0.127,2.202,0.253v0.52c0,0-1.343-0.058-2.202-0.058
			c-0.58,0-0.976,0.104-0.976,1.932c0,1.479,0.281,1.865,0.976,1.865c0.888,0,2.271-0.107,2.271-0.107v0.541
			c-0.782,0.223-1.468,0.271-2.271,0.281c-0.957,0-1.691-0.366-1.691-2.62C73.222,65.073,73.928,64.704,74.913,64.704z"/>
		<path fill="#FFFFFF" d="M77.859,68.075c0-0.772,0.483-1.284,1.284-1.284c0,0,2.145,0.013,2.145,0c0,0,0.011-0.635,0-0.646
			c0-0.59-0.309-0.792-0.792-0.792c-0.696,0-1.535,0.049-2.471,0.116v-0.526c0.685-0.188,1.543-0.275,2.501-0.289
			c0.803-0.009,1.478,0.428,1.478,1.487v3.739h-0.531l-0.184-0.619c-0.021,0-1.266,0.676-2.145,0.676
			c-0.705,0-1.284-0.456-1.284-1.272L77.859,68.075L77.859,68.075z M79.143,69.224c0.773,0,2.145-0.493,2.145-0.493v-1.379
			l-2.145,0.155c-0.415,0.036-0.569,0.319-0.569,0.626v0.482C78.574,69.08,78.815,69.224,79.143,69.224z"/>
		<path fill="#FFFFFF" d="M82.947,62.32h0.715v5.737c0,0.839,0.222,1.033,0.55,1.109c0,0,0.792,0.203,0.86,0.203v0.513h-0.85
			c-0.745,0-1.275-0.464-1.275-1.825V62.32z"/>
		<path fill="#FFFFFF" d="M85.609,68.075c0-0.772,0.482-1.284,1.283-1.284c0,0,2.146,0.013,2.146,0c0,0,0.01-0.635,0-0.646
			c0-0.59-0.31-0.792-0.792-0.792c-0.697,0-1.536,0.049-2.474,0.116v-0.526c0.687-0.188,1.546-0.275,2.502-0.289
			c0.802-0.009,1.478,0.428,1.478,1.487v3.739h-0.53l-0.184-0.619c-0.021,0-1.267,0.676-2.146,0.676
			c-0.704,0-1.283-0.456-1.283-1.272V68.075z M86.894,69.224c0.773,0,2.146-0.493,2.146-0.493v-1.379l-2.146,0.155
			c-0.415,0.036-0.569,0.319-0.569,0.626v0.482C86.324,69.08,86.565,69.224,86.894,69.224z"/>
		<path fill="#FFFFFF" d="M95.538,62.734c0.503,0,1.682,0.117,2.356,0.242v0.569c-0.01,0-1.468-0.096-2.356-0.096
			c-1.208,0-1.643,0.551-1.643,2.896c0,1.585,0.357,2.878,1.643,2.878c1.015,0,2.356-0.064,2.356-0.064v0.567
			c-0.676,0.125-1.854,0.213-2.356,0.213c-1.786,0-2.356-1.538-2.356-3.61C93.182,64.069,93.616,62.734,95.538,62.734z"/>
		<path fill="#FFFFFF" d="M100.734,64.704c1.729,0,2.262,0.646,2.262,2.686c0,1.902-0.532,2.541-2.262,2.541
			s-2.261-0.707-2.261-2.541C98.474,65.294,99.055,64.704,100.734,64.704z M100.734,69.216c1.043,0,1.545-0.136,1.545-1.826
			c0-1.836-0.416-1.971-1.545-1.971c-1.082,0-1.545,0.126-1.545,1.971C99.189,69.098,99.739,69.216,100.734,69.216z"/>
		<path fill="#FFFFFF" d="M103.89,64.752h0.503l0.212,0.601c0.589-0.338,1.111-0.687,1.893-0.687c1.023,0,1.584,0.793,1.584,1.644
			v3.574h-0.715V66.31c0-0.638-0.376-0.929-0.869-0.929c-0.772,0-1.149,0.193-1.893,0.551v3.952h-0.715V64.752z"/>
		<path fill="#FFFFFF" d="M108.641,64.917l0.938-0.165v-0.955c0-0.522,0.026-1.508,1.188-1.508c0.473,0,0.879,0.086,1.353,0.229
			v0.478c-0.009,0-1.188-0.012-1.188-0.012c-0.615-0.011-0.637,0.353-0.637,0.813v0.955h1.43v0.716h-1.43v4.414h-0.715v-4.414
			h-0.938v-0.551H108.641z"/>
		<path fill="#FFFFFF" d="M114.641,64.714c1.207,0,1.961,0.117,1.961,1.813c0,0.741-0.396,1.182-1.322,1.182h-2.162
			c0,1.209,0.224,1.508,0.976,1.508c0.892,0,1.688,0.008,2.414-0.097v0.54c-0.78,0.223-1.61,0.271-2.414,0.271
			c-1.305,0-1.688-0.629-1.688-2.637C112.4,65.004,113.057,64.714,114.641,64.714z M115.277,67.002c0.427,0,0.609-0.151,0.609-0.476
			c0-1.013-0.193-1.102-1.236-1.102c-1.094,0-1.537,0.009-1.537,1.574L115.277,67.002L115.277,67.002z"/>
		<path fill="#FFFFFF" d="M117.393,64.752h0.504l0.213,0.646c0.588-0.339,1.121-0.705,1.912-0.705c0.279,0,0.602,0.021,0.715,0.077
			v0.706c-0.113-0.025-0.436-0.059-0.715-0.059c-0.771,0-1.17,0.204-1.912,0.56v3.904h-0.717V64.752z"/>
		<path fill="#FFFFFF" d="M123.496,64.714c1.209,0,1.962,0.117,1.962,1.813c0,0.741-0.396,1.182-1.323,1.182h-2.164
			c0,1.209,0.223,1.508,0.979,1.508c0.89,0,1.688,0.008,2.412-0.097v0.54c-0.78,0.223-1.611,0.271-2.412,0.271
			c-1.305,0-1.69-0.629-1.69-2.637C121.256,65.004,121.915,64.714,123.496,64.714z M124.135,67.002c0.426,0,0.608-0.151,0.608-0.476
			c0-1.013-0.192-1.102-1.236-1.102c-1.093,0-1.536,0.009-1.536,1.574L124.135,67.002L124.135,67.002z"/>
		<path fill="#FFFFFF" d="M126.251,64.752h0.503l0.211,0.601c0.592-0.338,1.112-0.687,1.895-0.687c1.022,0,1.584,0.793,1.584,1.644
			v3.574h-0.715V66.31c0-0.638-0.377-0.929-0.869-0.929c-0.771,0-1.146,0.193-1.895,0.551v3.952h-0.714V64.752L126.251,64.752z"/>
		<path fill="#FFFFFF" d="M132.984,64.704c0.5,0,1.524,0.127,2.201,0.253v0.52c0,0-1.345-0.058-2.201-0.058
			c-0.58,0-0.979,0.104-0.979,1.932c0,1.479,0.281,1.865,0.979,1.865c0.889,0,2.271-0.107,2.271-0.107v0.541
			c-0.784,0.223-1.468,0.271-2.271,0.281c-0.957,0-1.691-0.366-1.691-2.62C131.293,65.073,131.999,64.704,132.984,64.704z"/>
		<path fill="#FFFFFF" d="M138.139,64.714c1.205,0,1.959,0.117,1.959,1.813c0,0.741-0.396,1.182-1.324,1.182h-2.164
			c0,1.209,0.225,1.508,0.978,1.508c0.89,0,1.688,0.008,2.415-0.097v0.54c-0.784,0.223-1.611,0.271-2.415,0.271
			c-1.304,0-1.688-0.629-1.688-2.637C135.895,65.004,136.551,64.714,138.139,64.714z M138.771,67.002
			c0.427,0,0.607-0.151,0.607-0.476c0-1.013-0.191-1.102-1.234-1.102c-1.095,0-1.537,0.009-1.537,1.574L138.771,67.002
			L138.771,67.002z"/>
		<path fill="#FFFFFF" d="M143.38,63.401c0-0.144,0.079-0.239,0.233-0.239h0.479c0.147,0,0.225,0.104,0.225,0.239v0.521
			c0,0.145-0.086,0.224-0.225,0.224h-0.479c-0.137,0-0.233-0.089-0.233-0.224V63.401z M143.477,64.752h0.715v5.13h-0.715V64.752z"/>
		<path fill="#FFFFFF" d="M145.215,64.752h0.502l0.21,0.601c0.591-0.338,1.112-0.687,1.896-0.687c1.022,0,1.585,0.793,1.585,1.644
			v3.574h-0.717V66.31c0-0.638-0.377-0.929-0.868-0.929c-0.772,0-1.147,0.193-1.894,0.551v3.952h-0.717L145.215,64.752
			L145.215,64.752z"/>
		<path fill="#FFFFFF" d="M155.189,62.734c0.502,0,1.682,0.117,2.354,0.242v0.569c-0.009,0-1.467-0.096-2.354-0.096
			c-1.207,0-1.644,0.551-1.644,2.896c0,1.585,0.354,2.878,1.644,2.878c1.015,0,2.354-0.064,2.354-0.064v0.567
			c-0.675,0.125-1.854,0.213-2.354,0.213c-1.785,0-2.356-1.538-2.356-3.61C152.833,64.069,153.268,62.734,155.189,62.734z"/>
		<path fill="#FFFFFF" d="M160.408,64.714c1.209,0,1.962,0.117,1.962,1.813c0,0.741-0.396,1.182-1.324,1.182h-2.164
			c0,1.209,0.222,1.508,0.976,1.508c0.891,0,1.691,0.008,2.416-0.097v0.54c-0.785,0.223-1.612,0.271-2.416,0.271
			c-1.303,0-1.688-0.629-1.688-2.637C158.168,65.004,158.826,64.714,160.408,64.714z M161.047,67.002
			c0.426,0,0.607-0.151,0.607-0.476c0-1.013-0.19-1.102-1.235-1.102c-1.09,0-1.536,0.009-1.536,1.574L161.047,67.002L161.047,67.002
			z"/>
		<path fill="#FFFFFF" d="M163.163,64.752h0.502l0.212,0.601c0.591-0.338,1.111-0.687,1.895-0.687c1.022,0,1.582,0.793,1.582,1.644
			v3.574h-0.713V66.31c0-0.638-0.379-0.929-0.869-0.929c-0.771,0-1.146,0.193-1.895,0.551v3.952h-0.714V64.752L163.163,64.752z"/>
		<path fill="#FFFFFF" d="M167.913,64.917l0.956-0.175l0.174-1.434h0.541v1.434h1.497v0.717h-1.497v2.587
			c0,0.841,0.223,1.034,0.55,1.11c0,0,0.792,0.201,0.86,0.201v0.512h-0.852c-0.742,0-1.273-0.46-1.273-1.823v-2.587h-0.956V64.917z"
			/>
		<path fill="#FFFFFF" d="M171.807,64.752h0.502l0.213,0.646c0.59-0.339,1.119-0.705,1.912-0.705c0.28,0,0.602,0.021,0.715,0.077
			v0.706c-0.112-0.025-0.434-0.059-0.715-0.059c-0.771,0-1.168,0.204-1.912,0.56v3.904h-0.715V64.752z"/>
		<path fill="#FFFFFF" d="M175.652,68.075c0-0.772,0.481-1.284,1.285-1.284c0,0,2.144,0.013,2.144,0c0,0,0.01-0.635,0-0.646
			c0-0.59-0.308-0.792-0.792-0.792c-0.695,0-1.536,0.049-2.473,0.116v-0.526c0.687-0.188,1.545-0.275,2.502-0.289
			c0.801-0.009,1.478,0.428,1.478,1.487v3.739h-0.532l-0.185-0.619c-0.019,0-1.265,0.676-2.144,0.676
			c-0.705,0-1.283-0.456-1.283-1.272V68.075L175.652,68.075z M176.938,69.224c0.772,0,2.146-0.493,2.146-0.493v-1.379l-2.146,0.155
			c-0.416,0.036-0.567,0.319-0.567,0.626v0.482C176.367,69.08,176.609,69.224,176.938,69.224z"/>
		<path fill="#FFFFFF" d="M180.741,62.32h0.714v5.737c0,0.839,0.225,1.033,0.552,1.109c0,0,0.792,0.203,0.86,0.203v0.513h-0.852
			c-0.742,0-1.274-0.464-1.274-1.825V62.32L180.741,62.32z"/>
		<path fill="#FFFFFF" d="M186.247,64.069c0-0.944,0.569-1.283,1.218-1.256l3.053,0.153v0.562h-3.053
			c-0.503,0-0.503,0.278-0.503,0.541V66l3.17,0.096v0.569l-3.17,0.097v1.932c0.011,0.516,0.319,0.502,0.601,0.502h2.955v0.555
			l-2.955,0.164c-0.639,0.039-1.313-0.127-1.313-1.22L186.247,64.069L186.247,64.069z"/>
		<path fill="#FFFFFF" d="M191.213,64.752h0.717v3.575c0,0.638,0.377,0.928,0.868,0.928c0.772,0,1.147-0.193,1.894-0.55v-3.953
			h0.717v5.13h-0.504l-0.213-0.599c-0.588,0.338-1.108,0.684-1.894,0.684c-1.024,0-1.585-0.79-1.585-1.641V64.752L191.213,64.752z"
			/>
		<path fill="#FFFFFF" d="M196.419,64.752h0.503l0.211,0.646c0.592-0.339,1.12-0.705,1.913-0.705c0.281,0,0.601,0.021,0.716,0.077
			v0.706c-0.115-0.025-0.435-0.059-0.716-0.059c-0.772,0-1.168,0.204-1.913,0.56v3.904h-0.714V64.752z"/>
		<path fill="#FFFFFF" d="M202.521,64.704c1.729,0,2.261,0.646,2.261,2.686c0,1.902-0.531,2.541-2.261,2.541
			c-1.73,0-2.26-0.707-2.26-2.541C200.264,65.294,200.843,64.704,202.521,64.704z M202.521,69.216c1.043,0,1.545-0.136,1.545-1.826
			c0-1.836-0.414-1.971-1.545-1.971c-1.082,0-1.547,0.126-1.547,1.971C200.977,69.098,201.527,69.216,202.521,69.216z"/>
		<path fill="#FFFFFF" d="M205.678,64.752h0.512l0.188,0.57c0.251-0.188,1.244-0.63,1.9-0.63c1.402,0,1.69,1.422,1.69,2.602
			c0,1.313-0.231,2.665-1.69,2.665c-0.434,0-1.281-0.134-1.9-0.386v2.916h-0.693L205.678,64.752L205.678,64.752z M208.275,69.243
			c0.619,0,0.975-0.375,0.975-1.949c0-1.255-0.348-1.884-0.975-1.884c-0.766,0-1.383,0.229-1.903,0.441v3.142
			C207.04,69.166,207.531,69.243,208.275,69.243z"/>
		<path fill="#FFFFFF" d="M212.997,64.714c1.207,0,1.962,0.117,1.962,1.813c0,0.741-0.396,1.182-1.322,1.182h-2.166
			c0,1.209,0.223,1.508,0.979,1.508c0.888,0,1.688,0.008,2.411-0.097v0.54c-0.779,0.223-1.609,0.271-2.411,0.271
			c-1.306,0-1.691-0.629-1.691-2.637C210.758,65.004,211.416,64.714,212.997,64.714z M213.637,67.002
			c0.426,0,0.608-0.151,0.608-0.476c0-1.013-0.192-1.102-1.236-1.102c-1.093,0-1.536,0.009-1.536,1.574L213.637,67.002
			L213.637,67.002z"/>
	</g>
</g>
</svg>
