<?xml version="1.0" encoding="utf-8"?>
<!-- Generator: Adobe Illustrator 15.1.0, SVG Export Plug-In . SVG Version: 6.00 Build 0)  -->
<!DOCTYPE svg PUBLIC "-//W3C//DTD SVG 1.1//EN" "http://www.w3.org/Graphics/SVG/1.1/DTD/svg11.dtd">
<svg version="1.1" id="Layer_1" xmlns="http://www.w3.org/2000/svg" xmlns:xlink="http://www.w3.org/1999/xlink" x="0px" y="0px"
	 width="18px" height="25px" viewBox="377 329 18 25" enable-background="new 377 329 18 25" xml:space="preserve">
<path fill="#FFFFFF" d="M386,334c-2.21,0-4,1.791-4,4s1.79,4,4,4c2.209,0,4-1.791,4-4S388.209,334,386,334z M386,340
	c-1.104,0-2-0.896-2-2s0.896-2,2-2c1.104,0,2,0.896,2,2S387.104,340,386,340z M386,329c-4.972,0-9,3.997-9,8.929
	c0,4.931,9,16.071,9,16.071s9-11.141,9-16.071C395,332.997,390.971,329,386,329z M379,338.272c0-4.017,3.134-7.272,7-7.272
	c3.865,0,7,3.256,7,7.272S386,351,386,351S379,342.289,379,338.272z"/>
</svg>
