<?xml version="1.0" encoding="utf-8"?>
<!-- Generator: Adobe Illustrator 15.1.0, SVG Export Plug-In . SVG Version: 6.00 Build 0)  -->
<!DOCTYPE svg PUBLIC "-//W3C//DTD SVG 1.1//EN" "http://www.w3.org/Graphics/SVG/1.1/DTD/svg11.dtd">
<svg version="1.1" id="Layer_1" xmlns="http://www.w3.org/2000/svg" xmlns:xlink="http://www.w3.org/1999/xlink" x="0px" y="0px"
	 width="240px" height="26.246px" viewBox="0 0 240 26.246" enable-background="new 0 0 240 26.246" xml:space="preserve">
<g>
	<rect x="9.67" fill="#FFFFFF" width="6.907" height="22.103"/>
	<rect x="58.019" fill="#FFFFFF" width="6.907" height="22.103"/>
	<rect x="29.009" fill="#FFFFFF" width="6.908" height="22.103"/>
	<rect x="38.679" y="4.144" fill="#FFFFFF" width="6.907" height="22.102"/>
	<rect x="48.349" fill="#FFFFFF" width="6.907" height="22.103"/>
	<circle fill="#FFFFFF" cx="22.793" cy="3.453" r="3.454"/>
	<circle fill="#FFFFFF" cx="3.454" cy="18.647" r="3.454"/>
	<circle fill="#FFFFFF" cx="71.142" cy="18.647" r="3.453"/>
	<g>
		<path fill="#FFFFFF" d="M82.43,15.269l0.833-0.986c1.242,1.122,2.432,1.683,4.081,1.683c1.599,0,2.653-0.851,2.653-2.023v-0.033
			c0-1.105-0.596-1.734-3.095-2.262c-2.738-0.595-3.997-1.479-3.997-3.435V8.179c0-1.871,1.65-3.248,3.91-3.248
			c1.735,0,2.976,0.493,4.185,1.461L90.218,7.43c-1.105-0.901-2.211-1.292-3.436-1.292c-1.546,0-2.531,0.851-2.531,1.922v0.033
			c0,1.123,0.611,1.752,3.229,2.314c2.653,0.576,3.877,1.547,3.877,3.365v0.035c0,2.04-1.699,3.367-4.063,3.367
			C85.406,17.173,83.859,16.544,82.43,15.269z"/>
		<path fill="#FFFFFF" d="M94.976,11.085v-0.034c0-3.282,2.465-6.155,6.087-6.155s6.053,2.839,6.053,6.122v0.033
			c0,3.282-2.465,6.155-6.087,6.155C97.407,17.206,94.976,14.367,94.976,11.085z M105.722,11.085v-0.034
			c0-2.704-1.973-4.914-4.693-4.914c-2.72,0-4.659,2.177-4.659,4.881v0.033c0,2.704,1.973,4.914,4.693,4.914
			C103.784,15.965,105.722,13.789,105.722,11.085z"/>
		<path fill="#FFFFFF" d="M111.363,5.1h8.553v1.241h-7.209v4.251h6.444v1.224h-6.444v5.186h-1.344V5.1z"/>
		<path fill="#FFFFFF" d="M127.569,6.341h-3.996V5.1h9.354v1.241h-3.997v10.661h-1.36V6.341z"/>
		<path fill="#FFFFFF" d="M135.932,5.1h1.464l3.4,9.914l3.264-9.947h1.106l3.264,9.947l3.401-9.914h1.411l-4.251,11.987h-1.139
			l-3.265-9.657l-3.282,9.657h-1.123L135.932,5.1z"/>
		<path fill="#FFFFFF" d="M159.955,5.015h1.258l5.425,11.987h-1.444l-1.396-3.145h-6.478l-1.41,3.145h-1.379L159.955,5.015z
			 M163.271,12.649l-2.704-6.071l-2.721,6.071H163.271z"/>
		<path fill="#FFFFFF" d="M169.895,5.1h5.117c1.462,0,2.637,0.441,3.384,1.19c0.577,0.578,0.919,1.412,0.919,2.346v0.034
			c0,1.973-1.361,3.128-3.231,3.469l3.655,4.862h-1.648l-3.452-4.625h-3.4v4.625h-1.343V5.1z M174.894,11.171
			c1.784,0,3.06-0.918,3.06-2.449V8.688c0-1.463-1.121-2.347-3.043-2.347h-3.673v4.83H174.894z"/>
		<path fill="#FFFFFF" d="M184.591,5.1h8.604v1.226h-7.262v4.063h6.496v1.223h-6.496v4.167h7.346v1.223h-8.688V5.1z"/>
		<path fill="#FFFFFF" d="M198.323,5.1h2.822l3.128,5.034l3.131-5.034h2.821v11.902h-2.601V9.231l-3.352,5.085h-0.066l-3.316-5.034
			v7.719h-2.567V5.1z"/>
		<path fill="#FFFFFF" d="M214.609,5.1h2.618v11.902h-2.618V5.1z"/>
		<path fill="#FFFFFF" d="M233.048,5.1h2.618v9.522H240v2.38h-6.952V5.1z"/>
		<path fill="#FFFFFF" d="M222.11,5.1h2.618v9.522h4.334v2.38h-6.952V5.1z"/>
	</g>
</g>
</svg>
