<?xml version="1.0" encoding="utf-8"?>
<!-- Generator: Adobe Illustrator 15.1.0, SVG Export Plug-In . SVG Version: 6.00 Build 0)  -->
<!DOCTYPE svg PUBLIC "-//W3C//DTD SVG 1.1//EN" "http://www.w3.org/Graphics/SVG/1.1/DTD/svg11.dtd">
<svg version="1.1" id="Layer_1" xmlns="http://www.w3.org/2000/svg" xmlns:xlink="http://www.w3.org/1999/xlink" x="0px" y="0px"
	 width="30px" height="24px" viewBox="220.395 330.25 30 24" enable-background="new 220.395 330.25 30 24" xml:space="preserve">
<path fill="#FFFFFF" d="M247.395,334.25l2-3l-4,1c-1.063-1.25-2.031-1.938-5-2c-3.083,0-6,2.667-6,7c-9.583,0-10.917-3.875-12-6
	c-2.208,3.25-0.583,7.75,2,9c-0.203,0.037-0.397,0.053-0.585,0.053c-1.493,0-2.415-1.053-2.415-1.053s0.75,4.333,5,6
	c0,0-1.719,0.719-4,0c0.406,0.531,1.25,2.667,6,4c-0.938,0.688-3.675,2.126-6.624,2.126c-0.445,0-0.904-0.039-1.376-0.126
	c0,0,2,3,9,3s11.583-2.917,14-6s4-5.583,4-12c1.667-1.25,3-3,3-3L247.395,334.25z M241.821,347.016
	c-1.232,1.574-4.913,5.234-12.426,5.234c-0.777,0-1.479-0.041-2.115-0.111c1.017-0.445,1.417-0.705,2.299-1.276
	c3.216-2.083,2.619-2.624-0.644-3.539c-0.561-0.157-0.913-0.278-1.3-0.425c3.552-1.107,3.114-1.941,0.052-3.191
	c-1.075-0.439-1.998-1.08-2.502-1.57c1.98-0.576,4.032-1.014,0.866-3.139c-0.938-0.63-2.058-1.665-2.4-2.631
	c1.932,1.572,5.124,2.881,10.744,2.881h2v-2c0-3.248,2.062-5,4-5c2.419,0.051,3.416,1.172,3.896,1.813
	c0.479,0.641,1.006,1.67,1.058,3.047C245.541,342.229,243.937,344.317,241.821,347.016z"/>
</svg>
